<svg xmlns="http://www.w3.org/2000/svg" version="1.1" xmlns:xlink="http://www.w3.org/1999/xlink" xmlns:svgjs="http://svgjs.dev/svgjs" width="2000" height="575" viewBox="0 0 2000 575"><g transform="matrix(1,0,0,1,-1.2121212121213603,-0.9682683046281682)"><svg viewBox="0 0 396 114" data-background-color="#ffffff" preserveAspectRatio="xMidYMid meet" height="575" width="2000" xmlns="http://www.w3.org/2000/svg" xmlns:xlink="http://www.w3.org/1999/xlink"><g id="tight-bounds" transform="matrix(1,0,0,1,0.24000000000003752,0.19196971604802116)"><svg viewBox="0 0 395.5199999999999 113.61606056790393" height="113.61606056790393" width="395.5199999999999"><g><svg viewBox="0 0 395.5199999999999 113.61606056790393" height="113.61606056790393" width="395.5199999999999"><g transform="matrix(1,0,0,1,0,70.21928348125559)"><svg viewBox="0 0 395.5199999999999 43.396777086648335" height="43.396777086648335" width="395.5199999999999"><g id="textblocktransform"><svg viewBox="0 0 395.5199999999999 43.396777086648335" height="43.396777086648335" width="395.5199999999999" id="textblock"><g><svg viewBox="0 0 395.5199999999999 43.396777086648335" height="43.396777086648335" width="395.5199999999999"><g transform="matrix(1,0,0,1,0,0)"><svg width="395.5199999999999" viewBox="3.25 -36.55 337.52 37.04" height="43.396777086648335" data-palette-color="#0f4780"><path d="M27.25-7.01L27.25 0 3.25 0 3.25-35.01 27.25-35.01 27.25-28 10.25-28 10.25-21 21.75-21 21.75-13.99 10.25-13.99 10.25-7.01 27.25-7.01ZM56-36.55L56 0 54.39 0 51.8-3.59Q50.85-2.73 49.79-1.99 48.73-1.25 47.56-0.7 46.38-0.15 45.15 0.17 43.92 0.49 42.65 0.49L42.65 0.49Q39.89 0.49 37.46-0.55 35.03-1.59 33.21-3.43 31.39-5.27 30.34-7.8 29.29-10.33 29.29-13.31L29.29-13.31Q29.29-16.26 30.34-18.8 31.39-21.34 33.21-23.19 35.03-25.05 37.46-26.1 39.89-27.15 42.65-27.15L42.65-27.15Q43.53-27.15 44.47-27 45.41-26.86 46.3-26.53 47.19-26.2 47.97-25.66 48.75-25.12 49.29-24.34L49.29-24.34 49.29-36.55 56-36.55ZM49.29-13.31L49.29-13.31Q49.29-14.67 48.76-15.95 48.24-17.24 47.34-18.23 46.43-19.21 45.22-19.81 44.02-20.41 42.65-20.41L42.65-20.41Q41.28-20.41 40.07-19.92 38.86-19.43 37.97-18.52 37.08-17.6 36.57-16.28 36.06-14.97 36.06-13.31L36.06-13.31Q36.06-11.87 36.57-10.57 37.08-9.28 37.97-8.3 38.86-7.32 40.07-6.76 41.28-6.2 42.65-6.2L42.65-6.2Q44.02-6.2 45.22-6.8 46.43-7.4 47.34-8.39 48.24-9.38 48.76-10.66 49.29-11.94 49.29-13.31ZM82.49 0L80.29-3.05Q79.49-2.32 78.57-1.67 77.66-1.03 76.66-0.55 75.65-0.07 74.59 0.21 73.53 0.49 72.43 0.49L72.43 0.49Q70.01 0.49 67.89-0.37 65.77-1.22 64.17-2.8 62.57-4.37 61.65-6.63 60.74-8.89 60.74-11.69L60.74-11.69 60.74-26.15 67.38-26.15 67.38-11.69Q67.38-10.38 67.78-9.34 68.18-8.3 68.87-7.59 69.55-6.88 70.47-6.52 71.38-6.15 72.43-6.15L72.43-6.15Q73.46-6.15 74.37-6.63 75.29-7.1 75.97-7.89 76.66-8.67 77.05-9.66 77.44-10.64 77.44-11.69L77.44-11.69 77.44-26.15 84.1-26.15 84.1 0 82.49 0ZM114.4-7.01L114.4 0 89.89 0 89.89-35.01 96.89-35.01 96.89-7.01 114.4-7.01ZM139.57-21.46L127.07-6.4Q127.46-6.27 127.85-6.24 128.24-6.2 128.63-6.2L128.63-6.2Q129.6-6.2 130.51-6.47 131.41-6.74 132.2-7.24 133-7.74 133.62-8.46 134.24-9.18 134.63-10.06L134.63-10.06 139.52-5.15Q138.59-3.83 137.38-2.78 136.17-1.73 134.77-1 133.36-0.27 131.81 0.11 130.26 0.49 128.63 0.49L128.63 0.49Q125.87 0.49 123.44-0.54 121.01-1.56 119.19-3.39 117.37-5.22 116.32-7.75 115.27-10.28 115.27-13.31L115.27-13.31Q115.27-16.41 116.32-18.97 117.37-21.53 119.19-23.34 121.01-25.15 123.44-26.15 125.87-27.15 128.63-27.15L128.63-27.15Q130.26-27.15 131.83-26.76 133.39-26.37 134.79-25.63 136.2-24.9 137.42-23.84 138.64-22.78 139.57-21.46L139.57-21.46ZM122.72-9.84L130.48-20.14Q130.02-20.31 129.57-20.36 129.12-20.41 128.63-20.41L128.63-20.41Q127.26-20.41 126.05-19.91 124.84-19.41 123.95-18.48 123.06-17.55 122.55-16.25 122.04-14.94 122.04-13.31L122.04-13.31Q122.04-12.94 122.07-12.48 122.11-12.01 122.19-11.54 122.28-11.06 122.4-10.62 122.52-10.18 122.72-9.84L122.72-9.84ZM157.26 0L157.26 0 142.03 0 142.03-6.64 157.26-6.64Q157.95-6.64 158.43-7.13 158.92-7.62 158.92-8.3L158.92-8.3Q158.92-9.01 158.43-9.23 157.95-9.45 157.26-9.45L157.26-9.45 150.33-9.45Q148.6-9.45 147.08-10.11 145.57-10.77 144.45-11.9 143.32-13.04 142.68-14.55 142.03-16.06 142.03-17.8L142.03-17.8Q142.03-19.53 142.68-21.04 143.32-22.56 144.45-23.68 145.57-24.8 147.08-25.45 148.6-26.1 150.33-26.1L150.33-26.1 163.83-26.1 163.83-19.46 150.33-19.46Q149.65-19.46 149.16-18.97 148.67-18.48 148.67-17.8L148.67-17.8Q148.67-17.09 149.16-16.59 149.65-16.09 150.33-16.09L150.33-16.09 157.26-16.09Q158.97-16.09 160.49-15.52 162-14.94 163.12-13.92 164.25-12.89 164.9-11.45 165.56-10.01 165.56-8.3L165.56-8.3Q165.56-6.57 164.9-5.07 164.25-3.56 163.12-2.43 162-1.29 160.49-0.65 158.97 0 157.26 0ZM183.46 0L183.46 0 168.22 0 168.22-6.64 183.46-6.64Q184.14-6.64 184.63-7.13 185.12-7.62 185.12-8.3L185.12-8.3Q185.12-9.01 184.63-9.23 184.14-9.45 183.46-9.45L183.46-9.45 176.52-9.45Q174.79-9.45 173.28-10.11 171.76-10.77 170.64-11.9 169.52-13.04 168.87-14.55 168.22-16.06 168.22-17.8L168.22-17.8Q168.22-19.53 168.87-21.04 169.52-22.56 170.64-23.68 171.76-24.8 173.28-25.45 174.79-26.1 176.52-26.1L176.52-26.1 190.02-26.1 190.02-19.46 176.52-19.46Q175.84-19.46 175.35-18.97 174.86-18.48 174.86-17.8L174.86-17.8Q174.86-17.09 175.35-16.59 175.84-16.09 176.52-16.09L176.52-16.09 183.46-16.09Q185.17-16.09 186.68-15.52 188.19-14.94 189.32-13.92 190.44-12.89 191.1-11.45 191.76-10.01 191.76-8.3L191.76-8.3Q191.76-6.57 191.1-5.07 190.44-3.56 189.32-2.43 188.19-1.29 186.68-0.65 185.17 0 183.46 0ZM220.56-13.31L220.56-13.31Q220.56-10.38 219.51-7.85 218.46-5.32 216.66-3.48 214.85-1.64 212.42-0.57 209.99 0.49 207.21 0.49L207.21 0.49Q204.45 0.49 202.02-0.57 199.59-1.64 197.77-3.48 195.95-5.32 194.9-7.85 193.85-10.38 193.85-13.31L193.85-13.31Q193.85-16.28 194.9-18.82 195.95-21.36 197.77-23.21 199.59-25.05 202.02-26.1 204.45-27.15 207.21-27.15L207.21-27.15Q209.99-27.15 212.42-26.16 214.85-25.17 216.66-23.35 218.46-21.53 219.51-18.98 220.56-16.43 220.56-13.31ZM213.85-13.31L213.85-13.31Q213.85-14.92 213.32-16.22 212.8-17.53 211.9-18.47 210.99-19.41 209.78-19.91 208.58-20.41 207.21-20.41L207.21-20.41Q205.84-20.41 204.63-19.91 203.42-19.41 202.53-18.47 201.64-17.53 201.13-16.22 200.62-14.92 200.62-13.31L200.62-13.31Q200.62-11.79 201.13-10.5 201.64-9.2 202.53-8.25 203.42-7.3 204.63-6.75 205.84-6.2 207.21-6.2L207.21-6.2Q208.58-6.2 209.78-6.71 210.99-7.23 211.9-8.15 212.8-9.08 213.32-10.4 213.85-11.72 213.85-13.31ZM230.91-14.94L230.91 0 224.25 0 224.25-26.15 225.86-26.15 228.06-23.61Q229.67-25.07 231.71-25.87 233.74-26.66 235.97-26.66L235.97-26.66Q238.36-26.66 240.48-25.74 242.61-24.83 244.19-23.23 245.78-21.63 246.7-19.49 247.61-17.36 247.61-14.94L247.61-14.94 247.61 0 240.95 0 240.95-14.94Q240.95-15.97 240.56-16.88 240.17-17.8 239.48-18.48 238.8-19.17 237.9-19.56 236.99-19.95 235.97-19.95L235.97-19.95Q234.92-19.95 233.99-19.56 233.06-19.17 232.38-18.48 231.69-17.8 231.3-16.88 230.91-15.97 230.91-14.94L230.91-14.94ZM260.06-13.99L260.06 0 253.05 0 253.05-35.01 260.06-35.01 260.06-21 274.05-21 274.05-35.01 281.06-35.01 281.06 0 274.05 0 274.05-13.99 260.06-13.99ZM307.91 0L305.71-3.05Q304.91-2.32 303.99-1.67 303.08-1.03 302.07-0.55 301.07-0.07 300.01 0.21 298.95 0.49 297.85 0.49L297.85 0.49Q295.43 0.49 293.31-0.37 291.19-1.22 289.59-2.8 287.99-4.37 287.07-6.63 286.16-8.89 286.16-11.69L286.16-11.69 286.16-26.15 292.8-26.15 292.8-11.69Q292.8-10.38 293.2-9.34 293.6-8.3 294.29-7.59 294.97-6.88 295.89-6.52 296.8-6.15 297.85-6.15L297.85-6.15Q298.88-6.15 299.79-6.63 300.71-7.1 301.39-7.89 302.07-8.67 302.47-9.66 302.86-10.64 302.86-11.69L302.86-11.69 302.86-26.15 309.52-26.15 309.52 0 307.91 0ZM340.77-13.31L340.77-13.31Q340.77-10.23 339.72-7.69 338.67-5.15 336.86-3.33 335.06-1.51 332.63-0.51 330.2 0.49 327.41 0.49L327.41 0.49Q324.66 0.49 322.23-0.54 319.8-1.56 317.98-3.39 316.16-5.22 315.11-7.75 314.06-10.28 314.06-13.31L314.06-13.31 314.06-36.55 320.75-36.55 320.75-24.34Q321.29-25.02 322.06-25.56 322.82-26.1 323.72-26.44 324.61-26.78 325.56-26.97 326.51-27.15 327.41-27.15L327.41-27.15Q330.2-27.15 332.63-26.11 335.06-25.07 336.86-23.22 338.67-21.36 339.72-18.84 340.77-16.31 340.77-13.31ZM334.05-13.31L334.05-13.31Q334.05-14.82 333.53-16.13 333-17.43 332.1-18.38 331.2-19.34 329.99-19.87 328.78-20.41 327.41-20.41L327.41-20.41Q326.05-20.41 324.84-19.81 323.63-19.21 322.73-18.23 321.82-17.24 321.31-15.95 320.8-14.67 320.8-13.31L320.8-13.31Q320.8-11.79 321.31-10.5 321.82-9.2 322.73-8.25 323.63-7.3 324.84-6.75 326.05-6.2 327.41-6.2L327.41-6.2Q328.78-6.2 329.99-6.75 331.2-7.3 332.1-8.25 333-9.2 333.53-10.5 334.05-11.79 334.05-13.31Z" opacity="1" transform="matrix(1,0,0,1,0,0)" fill="#0f4780" class="wordmark-text-0" data-fill-palette-color="primary" id="text-0"></path></svg></g></svg></g></svg></g></svg></g><g transform="matrix(1,0,0,1,158.7387865859924,0)"><svg viewBox="0 0 78.04242682801518 59.974345933748" height="59.974345933748" width="78.04242682801518"><g><svg xmlns="http://www.w3.org/2000/svg" xmlns:xlink="http://www.w3.org/1999/xlink" version="1.1" x="8.000000000000004" y="0" viewBox="1 3 60 58" style="enable-background:new 0 0 64 64;" xml:space="preserve" height="59.974345933748" width="62.042426828015174" class="icon-icon-0" data-fill-palette-color="accent" id="icon-0"><g fill="#21578d" data-fill-palette-color="accent"><path d="M31 56c0 0.552-0.448 1-1 1H4c-0.552 0-1-0.448-1-1s0.448-1 1-1h14c1.654 0 3-1.346 3-3v-1.05C20.667 50.967 20.338 51 20 51s-0.667-0.033-1-0.05V52c0 0.552-0.448 1-1 1H4c-1.654 0-3 1.346-3 3s1.346 3 3 3h26c1.654 0 3-1.346 3-3 0-0.552 0.448-1 1-1h5v-2h-5C32.346 53 31 54.346 31 56z" fill="#21578d" data-fill-palette-color="accent"></path><path d="M6.283 42c2.211 3.024 5.387 5.291 9.08 6.341-1.248-1.557-2.29-3.73-3.043-6.341H6.283z" fill="#21578d" data-fill-palette-color="accent"></path><path d="M20 49c2.088 0 4.265-2.612 5.626-7H14.374C15.735 46.388 17.912 49 20 49z" fill="#21578d" data-fill-palette-color="accent"></path><path d="M11.817 40c-0.459-2.138-0.735-4.496-0.794-7H3.051c0.148 2.517 0.828 4.892 1.958 7H11.817z" fill="#21578d" data-fill-palette-color="accent"></path><path d="M24.638 48.341c3.693-1.05 6.869-3.316 9.08-6.341h-6.037C26.927 44.611 25.885 46.783 24.638 48.341z" fill="#21578d" data-fill-palette-color="accent"></path><circle cx="34" cy="26" r="1.0" fill="#21578d" data-fill-palette-color="accent"></circle><path d="M11.817 24H5.008c-1.129 2.108-1.81 4.483-1.958 7h7.973C11.082 28.496 11.358 26.138 11.817 24z" fill="#21578d" data-fill-palette-color="accent"></path><path d="M23 24h-9.154c-0.467 2.058-0.762 4.412-0.823 7h11.003C23.391 30.162 23 29.13 23 28V24z" fill="#21578d" data-fill-palette-color="accent"></path><path d="M13.846 40h12.309c0.467-2.058 0.762-4.412 0.823-7H13.022C13.084 35.588 13.379 37.942 13.846 40z" fill="#21578d" data-fill-palette-color="accent"></path><path d="M15.362 15.659c-3.693 1.05-6.869 3.316-9.08 6.341h6.037C13.073 19.389 14.115 17.217 15.362 15.659z" fill="#21578d" data-fill-palette-color="accent"></path><path d="M23 22v-6.71C22.012 15.114 21.01 15 20 15c-2.088 0-4.265 2.612-5.626 7H23z" fill="#21578d" data-fill-palette-color="accent"></path><path d="M36.949 33h-7.973c-0.059 2.504-0.335 4.862-0.794 7h6.809C36.121 37.892 36.802 35.517 36.949 33z" fill="#21578d" data-fill-palette-color="accent"></path><polygon points="39,7.618 39,14.382 45.764,11  " fill="#21578d" data-fill-palette-color="accent"></polygon><path d="M58 3H28c-1.654 0-3 1.346-3 3v13h36V6C61 4.346 59.654 3 58 3zM29 17h-2v-2h2V17zM31 7h-2v6h-2V7c0-1.103 0.897-2 2-2h2V7zM37 17.618V4.382L50.236 11 37 17.618zM59 17h-2v-2h2V17zM59 13h-2v-2h2V13zM59 9h-2V7h2V9z" fill="#21578d" data-fill-palette-color="accent"></path><path d="M25 28c0 1.654 1.346 3 3 3h30c1.654 0 3-1.346 3-3v-7H25V28zM27 25h4.184c0.414-1.161 1.514-2 2.816-2s2.402 0.839 2.816 2H59v2H36.816c-0.414 1.161-1.514 2-2.816 2s-2.402-0.839-2.816-2H27V25z" fill="#21578d" data-fill-palette-color="accent"></path><path d="M51 60.949V61h3c1.868 0 3.564-0.74 4.821-1.938-0.589-0.074-1.201-0.113-1.821-0.113C53.278 58.949 51 60.244 51 60.949z" fill="#21578d" data-fill-palette-color="accent"></path><path d="M45 54c0-0.552-0.448-1-1-1h-3v2h3C44.552 55 45 54.552 45 54z" fill="#21578d" data-fill-palette-color="accent"></path><path d="M57 51c-2.222 0-4.459-0.43-6-1.268v8.503c2.303-1.244 6.154-1.576 9.187-0.97C60.704 56.289 61 55.179 61 54c0-1.197-0.303-2.324-0.835-3.311C59.17 50.891 58.093 51 57 51z" fill="#21578d" data-fill-palette-color="accent"></path><path d="M41.101 51H44c1.654 0 3 1.346 3 3s-1.346 3-3 3h-2.899c0.465 2.279 2.484 4 4.899 4h3V47h-3C43.586 47 41.566 48.721 41.101 51z" fill="#21578d" data-fill-palette-color="accent"></path><path d="M58.773 48.894C57.521 47.723 55.845 47 54 47h-3c0 0.705 2.278 2 6 2C57.603 49 58.199 48.964 58.773 48.894z" fill="#21578d" data-fill-palette-color="accent"></path></g></svg></g></svg></g><g><rect width="158.7387865859924" height="3.9135661431479005" y="55.060779790600094" x="236.78121341400757" fill="#21578d" data-fill-palette-color="accent"></rect><rect width="158.7387865859924" height="3.9135661431479005" y="55.060779790600094" x="0" fill="#21578d" data-fill-palette-color="accent"></rect><rect width="158.7387865859924" height="3.9135661431479005" y="47.233647504304294" x="236.78121341400757" fill="#21578d" data-fill-palette-color="accent"></rect><rect width="158.7387865859924" height="3.9135661431479005" y="47.233647504304294" x="0" fill="#21578d" data-fill-palette-color="accent"></rect></g></svg></g><defs></defs></svg><rect width="395.5199999999999" height="113.61606056790393" fill="none" stroke="none" visibility="hidden"></rect></g></svg></g></svg>